<svg xmlns="http://www.w3.org/2000/svg" xmlns:xlink="http://www.w3.org/1999/xlink" width="113" zoomAndPan="magnify" viewBox="0 0 84.75 56.999997" height="76" preserveAspectRatio="xMidYMid meet" version="1.0"><defs><filter x="0%" y="0%" width="100%" height="100%" id="01cd099c82"><feColorMatrix values="0 0 0 0 1 0 0 0 0 1 0 0 0 0 1 0 0 0 1 0" color-interpolation-filters="sRGB"/></filter><g/><clipPath id="93e79ac959"><path d="M 0 0.0820312 L 84.5 0.0820312 L 84.5 56.914062 L 0 56.914062 Z M 0 0.0820312 " clip-rule="nonzero"/></clipPath><clipPath id="2de860ad93"><path d="M 0 22 L 84.5 22 L 84.5 56.914062 L 0 56.914062 Z M 0 22 " clip-rule="nonzero"/></clipPath><clipPath id="b379ed6be0"><path d="M 0 0.886719 L 84.5 0.886719 L 84.5 34.914062 L 0 34.914062 Z M 0 0.886719 " clip-rule="nonzero"/></clipPath><clipPath id="a356f7182b"><path d="M 0 0.886719 L 84.5 0.886719 L 84.5 34.914062 L 0 34.914062 Z M 0 0.886719 " clip-rule="nonzero"/></clipPath><clipPath id="8951d2abce"><path d="M 66.921875 0.886719 L 84.5 0.886719 L 84.5 34.914062 L 66.921875 34.914062 Z M 66.921875 0.886719 " clip-rule="nonzero"/></clipPath><linearGradient x1="126.460999" gradientTransform="matrix(0.643479, 0, 0, 0.641507, 1.912367, 16.286982)" y1="-24.008851" x2="126.460999" gradientUnits="userSpaceOnUse" y2="29.039725" id="e1b3fc0a9a"><stop stop-opacity="1" stop-color="rgb(4.309082%, 8.628845%, 12.548828%)" offset="0"/><stop stop-opacity="1" stop-color="rgb(4.309082%, 8.628845%, 12.548828%)" offset="0.25"/><stop stop-opacity="1" stop-color="rgb(4.309082%, 8.628845%, 12.548828%)" offset="0.375"/><stop stop-opacity="1" stop-color="rgb(4.309082%, 8.628845%, 12.548828%)" offset="0.390625"/><stop stop-opacity="1" stop-color="rgb(4.426575%, 8.840942%, 12.796021%)" offset="0.394531"/><stop stop-opacity="1" stop-color="rgb(4.545593%, 9.05304%, 13.044739%)" offset="0.398437"/><stop stop-opacity="1" stop-color="rgb(4.927063%, 9.741211%, 13.847351%)" offset="0.402344"/><stop stop-opacity="1" stop-color="rgb(5.310059%, 10.430908%, 14.649963%)" offset="0.40625"/><stop stop-opacity="1" stop-color="rgb(5.693054%, 11.11908%, 15.452576%)" offset="0.410156"/><stop stop-opacity="1" stop-color="rgb(6.07605%, 11.807251%, 16.256714%)" offset="0.414062"/><stop stop-opacity="1" stop-color="rgb(6.459045%, 12.495422%, 17.059326%)" offset="0.417969"/><stop stop-opacity="1" stop-color="rgb(6.842041%, 13.183594%, 17.861938%)" offset="0.421875"/><stop stop-opacity="1" stop-color="rgb(7.223511%, 13.871765%, 18.664551%)" offset="0.425781"/><stop stop-opacity="1" stop-color="rgb(7.606506%, 14.561462%, 19.468689%)" offset="0.429688"/><stop stop-opacity="1" stop-color="rgb(7.989502%, 15.249634%, 20.271301%)" offset="0.433594"/><stop stop-opacity="1" stop-color="rgb(8.372498%, 15.937805%, 21.073914%)" offset="0.4375"/><stop stop-opacity="1" stop-color="rgb(8.755493%, 16.625977%, 21.876526%)" offset="0.441406"/><stop stop-opacity="1" stop-color="rgb(9.138489%, 17.315674%, 22.680664%)" offset="0.445312"/><stop stop-opacity="1" stop-color="rgb(9.519958%, 18.003845%, 23.483276%)" offset="0.449219"/><stop stop-opacity="1" stop-color="rgb(9.902954%, 18.692017%, 24.287415%)" offset="0.453125"/><stop stop-opacity="1" stop-color="rgb(10.28595%, 19.380188%, 25.090027%)" offset="0.457031"/><stop stop-opacity="1" stop-color="rgb(10.668945%, 20.068359%, 25.892639%)" offset="0.460938"/><stop stop-opacity="1" stop-color="rgb(11.051941%, 20.756531%, 26.695251%)" offset="0.464844"/><stop stop-opacity="1" stop-color="rgb(11.434937%, 21.446228%, 27.49939%)" offset="0.46875"/><stop stop-opacity="1" stop-color="rgb(11.845398%, 22.146606%, 28.30658%)" offset="0.472656"/><stop stop-opacity="1" stop-color="rgb(12.257385%, 22.846985%, 29.11377%)" offset="0.476562"/><stop stop-opacity="1" stop-color="rgb(13.174438%, 23.764038%, 29.992676%)" offset="0.480469"/><stop stop-opacity="1" stop-color="rgb(14.093018%, 24.682617%, 30.871582%)" offset="0.484375"/><stop stop-opacity="1" stop-color="rgb(15.010071%, 25.59967%, 31.750488%)" offset="0.488281"/><stop stop-opacity="1" stop-color="rgb(15.927124%, 26.51825%, 32.63092%)" offset="0.492188"/><stop stop-opacity="1" stop-color="rgb(16.844177%, 27.435303%, 33.509827%)" offset="0.496094"/><stop stop-opacity="1" stop-color="rgb(17.762756%, 28.352356%, 34.390259%)" offset="0.5"/><stop stop-opacity="1" stop-color="rgb(18.67981%, 29.269409%, 35.269165%)" offset="0.503906"/><stop stop-opacity="1" stop-color="rgb(19.598389%, 30.187988%, 36.149597%)" offset="0.507812"/><stop stop-opacity="1" stop-color="rgb(20.515442%, 31.105042%, 37.028503%)" offset="0.511719"/><stop stop-opacity="1" stop-color="rgb(21.434021%, 32.023621%, 37.908936%)" offset="0.515625"/><stop stop-opacity="1" stop-color="rgb(22.351074%, 32.940674%, 38.787842%)" offset="0.519531"/><stop stop-opacity="1" stop-color="rgb(23.268127%, 33.859253%, 39.668274%)" offset="0.523438"/><stop stop-opacity="1" stop-color="rgb(24.185181%, 34.776306%, 40.54718%)" offset="0.527344"/><stop stop-opacity="1" stop-color="rgb(25.10376%, 35.693359%, 41.427612%)" offset="0.53125"/><stop stop-opacity="1" stop-color="rgb(26.020813%, 36.610413%, 42.306519%)" offset="0.535156"/><stop stop-opacity="1" stop-color="rgb(26.939392%, 37.528992%, 43.186951%)" offset="0.539062"/><stop stop-opacity="1" stop-color="rgb(27.856445%, 38.446045%, 44.065857%)" offset="0.542969"/><stop stop-opacity="1" stop-color="rgb(28.775024%, 39.364624%, 44.946289%)" offset="0.546875"/><stop stop-opacity="1" stop-color="rgb(29.692078%, 40.281677%, 45.825195%)" offset="0.550781"/><stop stop-opacity="1" stop-color="rgb(30.609131%, 41.200256%, 46.705627%)" offset="0.554688"/><stop stop-opacity="1" stop-color="rgb(31.526184%, 42.590332%, 48.316956%)" offset="0.558594"/><stop stop-opacity="1" stop-color="rgb(32.444763%, 43.981934%, 49.92981%)" offset="0.5625"/><stop stop-opacity="1" stop-color="rgb(33.361816%, 45.492554%, 51.727295%)" offset="0.566406"/><stop stop-opacity="1" stop-color="rgb(34.280396%, 47.003174%, 53.52478%)" offset="0.570312"/><stop stop-opacity="1" stop-color="rgb(35.197449%, 48.513794%, 55.32074%)" offset="0.574219"/><stop stop-opacity="1" stop-color="rgb(36.116028%, 50.024414%, 57.118225%)" offset="0.578125"/><stop stop-opacity="1" stop-color="rgb(37.033081%, 51.535034%, 58.91571%)" offset="0.582031"/><stop stop-opacity="1" stop-color="rgb(37.950134%, 53.045654%, 60.713196%)" offset="0.585938"/><stop stop-opacity="1" stop-color="rgb(38.867188%, 54.554749%, 62.510681%)" offset="0.589844"/><stop stop-opacity="1" stop-color="rgb(39.785767%, 56.065369%, 64.308167%)" offset="0.59375"/><stop stop-opacity="1" stop-color="rgb(40.70282%, 57.575989%, 66.104126%)" offset="0.597656"/><stop stop-opacity="1" stop-color="rgb(41.621399%, 59.086609%, 67.901611%)" offset="0.601562"/><stop stop-opacity="1" stop-color="rgb(42.538452%, 60.597229%, 69.699097%)" offset="0.605469"/><stop stop-opacity="1" stop-color="rgb(43.457031%, 62.107849%, 71.496582%)" offset="0.609375"/><stop stop-opacity="1" stop-color="rgb(44.374084%, 63.618469%, 73.292542%)" offset="0.613281"/><stop stop-opacity="1" stop-color="rgb(45.291138%, 65.129089%, 75.090027%)" offset="0.617188"/><stop stop-opacity="1" stop-color="rgb(46.208191%, 66.639709%, 76.887512%)" offset="0.621094"/><stop stop-opacity="1" stop-color="rgb(47.12677%, 68.15033%, 78.684998%)" offset="0.625"/><stop stop-opacity="1" stop-color="rgb(48.043823%, 69.66095%, 80.482483%)" offset="0.628906"/><stop stop-opacity="1" stop-color="rgb(48.962402%, 71.17157%, 82.279968%)" offset="0.632812"/><stop stop-opacity="1" stop-color="rgb(49.03717%, 72.099304%, 83.525085%)" offset="0.636719"/><stop stop-opacity="1" stop-color="rgb(49.113464%, 73.027039%, 84.771729%)" offset="0.640625"/><stop stop-opacity="1" stop-color="rgb(48.48175%, 73.466492%, 85.55603%)" offset="0.644531"/><stop stop-opacity="1" stop-color="rgb(47.851562%, 73.907471%, 86.340332%)" offset="0.648437"/><stop stop-opacity="1" stop-color="rgb(47.219849%, 74.346924%, 87.123108%)" offset="0.652344"/><stop stop-opacity="1" stop-color="rgb(46.589661%, 74.786377%, 87.90741%)" offset="0.65625"/><stop stop-opacity="1" stop-color="rgb(45.957947%, 75.22583%, 88.691711%)" offset="0.660156"/><stop stop-opacity="1" stop-color="rgb(45.327759%, 75.666809%, 89.476013%)" offset="0.664062"/><stop stop-opacity="1" stop-color="rgb(44.696045%, 76.106262%, 90.260315%)" offset="0.667969"/><stop stop-opacity="1" stop-color="rgb(44.065857%, 76.545715%, 91.044617%)" offset="0.671875"/><stop stop-opacity="1" stop-color="rgb(43.434143%, 76.985168%, 91.827393%)" offset="0.675781"/><stop stop-opacity="1" stop-color="rgb(42.803955%, 77.426147%, 92.611694%)" offset="0.679688"/><stop stop-opacity="1" stop-color="rgb(42.172241%, 77.865601%, 93.395996%)" offset="0.683594"/><stop stop-opacity="1" stop-color="rgb(41.542053%, 78.305054%, 94.180298%)" offset="0.6875"/><stop stop-opacity="1" stop-color="rgb(40.910339%, 78.744507%, 94.9646%)" offset="0.691406"/><stop stop-opacity="1" stop-color="rgb(40.280151%, 79.185486%, 95.748901%)" offset="0.695312"/><stop stop-opacity="1" stop-color="rgb(39.648438%, 79.624939%, 96.531677%)" offset="0.699219"/><stop stop-opacity="1" stop-color="rgb(39.01825%, 80.064392%, 97.315979%)" offset="0.703125"/><stop stop-opacity="1" stop-color="rgb(38.386536%, 80.503845%, 98.100281%)" offset="0.707031"/><stop stop-opacity="1" stop-color="rgb(37.756348%, 80.943298%, 98.884583%)" offset="0.710938"/><stop stop-opacity="1" stop-color="rgb(37.307739%, 81.256104%, 99.441528%)" offset="0.714844"/><stop stop-opacity="1" stop-color="rgb(36.859131%, 81.568909%, 100%)" offset="0.71875"/><stop stop-opacity="1" stop-color="rgb(36.859131%, 81.568909%, 100%)" offset="0.75"/><stop stop-opacity="1" stop-color="rgb(36.859131%, 81.568909%, 100%)" offset="1"/></linearGradient><clipPath id="d222dec2ff"><rect x="0" width="85" y="0" height="35"/></clipPath><clipPath id="3e017f05f1"><path d="M 0 0.886719 L 84.5 0.886719 L 84.5 34.914062 L 0 34.914062 Z M 0 0.886719 " clip-rule="nonzero"/></clipPath><clipPath id="af82dc87b5"><rect x="0" width="85" y="0" height="35"/></clipPath><clipPath id="9e508638e2"><rect x="0" width="85" y="0" height="35"/></clipPath><mask id="00c58a00c8"><g filter="url(#01cd099c82)"><g transform="matrix(1, 0, 0, 1, 0, -0.000000000000010658)"><g clip-path="url(#9e508638e2)"><g clip-path="url(#3e017f05f1)"><g transform="matrix(1, 0, 0, 1, 0, -0.000000000000010658)"><g clip-path="url(#af82dc87b5)"><g fill="#000000" fill-opacity="1"><g transform="translate(82.344492, 22.061219)"><g/></g></g></g></g></g></g></g></g></mask><clipPath id="41569ce4c2"><path d="M 66.921875 0.886719 L 84.5 0.886719 L 84.5 34.914062 L 66.921875 34.914062 Z M 66.921875 0.886719 " clip-rule="nonzero"/></clipPath><clipPath id="173f824609"><rect x="0" width="85" y="0" height="35"/></clipPath><clipPath id="6350204d2a"><rect x="0" width="85" y="0" height="35"/></clipPath><clipPath id="d7877ff433"><rect x="0" width="85" y="0" height="35"/></clipPath><clipPath id="fd6dee4fbe"><rect x="0" width="85" y="0" height="57"/></clipPath></defs><g clip-path="url(#93e79ac959)"><g transform="matrix(1, 0, 0, 1, 0, -0.0000000000000102)"><g clip-path="url(#fd6dee4fbe)"><g fill="#1b3a6b" fill-opacity="1"><g transform="translate(1.459954, 36.369333)"><g><path d="M 12.84375 -28.65625 C 15.851562 -28.65625 18.5 -28.066406 20.78125 -26.890625 C 23.070312 -25.710938 24.835938 -24.035156 26.078125 -21.859375 C 27.328125 -19.679688 27.953125 -17.15625 27.953125 -14.28125 C 27.953125 -11.40625 27.328125 -8.894531 26.078125 -6.75 C 24.835938 -4.601562 23.070312 -2.941406 20.78125 -1.765625 C 18.5 -0.585938 15.851562 0 12.84375 0 L 2.828125 0 L 2.828125 -28.65625 Z M 12.640625 -4.890625 C 15.648438 -4.890625 17.972656 -5.707031 19.609375 -7.34375 C 21.253906 -8.988281 22.078125 -11.300781 22.078125 -14.28125 C 22.078125 -17.269531 21.253906 -19.601562 19.609375 -21.28125 C 17.972656 -22.96875 15.648438 -23.8125 12.640625 -23.8125 L 8.578125 -23.8125 L 8.578125 -4.890625 Z M 12.640625 -4.890625 "/></g></g></g><g fill="#0cc0df" fill-opacity="1"><g transform="translate(28.233431, 36.369333)"><g><path d="M 1.4375 -14.359375 C 1.4375 -17.179688 2.070312 -19.707031 3.34375 -21.9375 C 4.613281 -24.164062 6.347656 -25.898438 8.546875 -27.140625 C 10.753906 -28.390625 13.226562 -29.015625 15.96875 -29.015625 C 19.164062 -29.015625 21.96875 -28.191406 24.375 -26.546875 C 26.789062 -24.910156 28.476562 -22.644531 29.4375 -19.75 L 22.828125 -19.75 C 22.171875 -21.113281 21.242188 -22.132812 20.046875 -22.8125 C 18.859375 -23.5 17.484375 -23.84375 15.921875 -23.84375 C 14.253906 -23.84375 12.769531 -23.453125 11.46875 -22.671875 C 10.164062 -21.898438 9.148438 -20.800781 8.421875 -19.375 C 7.703125 -17.945312 7.34375 -16.273438 7.34375 -14.359375 C 7.34375 -12.472656 7.703125 -10.8125 8.421875 -9.375 C 9.148438 -7.9375 10.164062 -6.828125 11.46875 -6.046875 C 12.769531 -5.273438 14.253906 -4.890625 15.921875 -4.890625 C 17.484375 -4.890625 18.859375 -5.238281 20.046875 -5.9375 C 21.242188 -6.632812 22.171875 -7.664062 22.828125 -9.03125 L 29.4375 -9.03125 C 28.476562 -6.101562 26.800781 -3.820312 24.40625 -2.1875 C 22.007812 -0.5625 19.195312 0.25 15.96875 0.25 C 13.226562 0.25 10.753906 -0.367188 8.546875 -1.609375 C 6.347656 -2.859375 4.613281 -4.59375 3.34375 -6.8125 C 2.070312 -9.03125 1.4375 -11.546875 1.4375 -14.359375 Z M 1.4375 -14.359375 "/></g></g></g><g fill="#1b3a6b" fill-opacity="1"><g transform="translate(55.987765, 36.369333)"><g><path d="M 12.71875 0.28125 C 10.726562 0.28125 8.929688 -0.0546875 7.328125 -0.734375 C 5.722656 -1.421875 4.457031 -2.40625 3.53125 -3.6875 C 2.601562 -4.976562 2.125 -6.5 2.09375 -8.25 L 8.25 -8.25 C 8.332031 -7.070312 8.75 -6.140625 9.5 -5.453125 C 10.25 -4.773438 11.28125 -4.4375 12.59375 -4.4375 C 13.9375 -4.4375 14.988281 -4.753906 15.75 -5.390625 C 16.519531 -6.035156 16.90625 -6.878906 16.90625 -7.921875 C 16.90625 -8.765625 16.644531 -9.460938 16.125 -10.015625 C 15.601562 -10.566406 14.953125 -11 14.171875 -11.3125 C 13.398438 -11.625 12.328125 -11.972656 10.953125 -12.359375 C 9.097656 -12.898438 7.585938 -13.4375 6.421875 -13.96875 C 5.253906 -14.507812 4.253906 -15.316406 3.421875 -16.390625 C 2.585938 -17.472656 2.171875 -18.921875 2.171875 -20.734375 C 2.171875 -22.429688 2.59375 -23.90625 3.4375 -25.15625 C 4.289062 -26.414062 5.484375 -27.378906 7.015625 -28.046875 C 8.546875 -28.722656 10.296875 -29.0625 12.265625 -29.0625 C 15.222656 -29.0625 17.625 -28.34375 19.46875 -26.90625 C 21.320312 -25.46875 22.34375 -23.460938 22.53125 -20.890625 L 16.21875 -20.890625 C 16.15625 -21.878906 15.734375 -22.691406 14.953125 -23.328125 C 14.179688 -23.972656 13.148438 -24.296875 11.859375 -24.296875 C 10.734375 -24.296875 9.835938 -24.007812 9.171875 -23.4375 C 8.503906 -22.863281 8.171875 -22.03125 8.171875 -20.9375 C 8.171875 -20.164062 8.421875 -19.523438 8.921875 -19.015625 C 9.429688 -18.515625 10.0625 -18.109375 10.8125 -17.796875 C 11.5625 -17.484375 12.625 -17.117188 14 -16.703125 C 15.851562 -16.160156 17.367188 -15.613281 18.546875 -15.0625 C 19.722656 -14.519531 20.734375 -13.695312 21.578125 -12.59375 C 22.429688 -11.5 22.859375 -10.066406 22.859375 -8.296875 C 22.859375 -6.765625 22.460938 -5.335938 21.671875 -4.015625 C 20.878906 -2.703125 19.71875 -1.65625 18.1875 -0.875 C 16.65625 -0.101562 14.832031 0.28125 12.71875 0.28125 Z M 12.71875 0.28125 "/></g></g></g><g clip-path="url(#2de860ad93)"><g transform="matrix(1, 0, 0, 1, 0, 22)"><g clip-path="url(#d7877ff433)"><g fill="#1b3a6b" fill-opacity="1"><g transform="translate(2.111995, 22.061219)"><g><path d="M 2.40625 -5.375 C 2.976562 -5.375 3.476562 -5.265625 3.90625 -5.046875 C 4.332031 -4.828125 4.660156 -4.507812 4.890625 -4.09375 C 5.128906 -3.6875 5.25 -3.21875 5.25 -2.6875 C 5.25 -2.144531 5.128906 -1.671875 4.890625 -1.265625 C 4.660156 -0.859375 4.332031 -0.546875 3.90625 -0.328125 C 3.476562 -0.109375 2.976562 0 2.40625 0 L 0.53125 0 L 0.53125 -5.375 Z M 2.375 -0.921875 C 2.9375 -0.921875 3.367188 -1.070312 3.671875 -1.375 C 3.984375 -1.6875 4.140625 -2.125 4.140625 -2.6875 C 4.140625 -3.238281 3.984375 -3.671875 3.671875 -3.984375 C 3.367188 -4.304688 2.9375 -4.46875 2.375 -4.46875 L 1.609375 -4.46875 L 1.609375 -0.921875 Z M 2.375 -0.921875 "/></g></g></g><g fill="#1b3a6b" fill-opacity="1"><g transform="translate(7.633219, 22.061219)"><g><path d="M 0.25 -2.15625 C 0.25 -2.582031 0.332031 -2.960938 0.5 -3.296875 C 0.675781 -3.628906 0.910156 -3.882812 1.203125 -4.0625 C 1.503906 -4.25 1.835938 -4.34375 2.203125 -4.34375 C 2.523438 -4.34375 2.800781 -4.273438 3.03125 -4.140625 C 3.269531 -4.015625 3.460938 -3.851562 3.609375 -3.65625 L 3.609375 -4.265625 L 4.703125 -4.265625 L 4.703125 0 L 3.609375 0 L 3.609375 -0.625 C 3.472656 -0.425781 3.28125 -0.257812 3.03125 -0.125 C 2.789062 0 2.515625 0.0625 2.203125 0.0625 C 1.835938 0.0625 1.503906 -0.0234375 1.203125 -0.203125 C 0.910156 -0.390625 0.675781 -0.648438 0.5 -0.984375 C 0.332031 -1.328125 0.25 -1.71875 0.25 -2.15625 Z M 3.609375 -2.140625 C 3.609375 -2.398438 3.554688 -2.625 3.453125 -2.8125 C 3.347656 -3 3.207031 -3.140625 3.03125 -3.234375 C 2.863281 -3.335938 2.679688 -3.390625 2.484375 -3.390625 C 2.285156 -3.390625 2.097656 -3.335938 1.921875 -3.234375 C 1.753906 -3.140625 1.617188 -3 1.515625 -2.8125 C 1.410156 -2.625 1.359375 -2.40625 1.359375 -2.15625 C 1.359375 -1.894531 1.410156 -1.664062 1.515625 -1.46875 C 1.617188 -1.28125 1.753906 -1.132812 1.921875 -1.03125 C 2.097656 -0.925781 2.285156 -0.875 2.484375 -0.875 C 2.679688 -0.875 2.863281 -0.921875 3.03125 -1.015625 C 3.207031 -1.117188 3.347656 -1.265625 3.453125 -1.453125 C 3.554688 -1.640625 3.609375 -1.867188 3.609375 -2.140625 Z M 3.609375 -2.140625 "/></g></g></g><g fill="#1b3a6b" fill-opacity="1"><g transform="translate(12.854127, 22.061219)"><g><path d="M 1.78125 -3.375 L 1.78125 -1.3125 C 1.78125 -1.164062 1.816406 -1.0625 1.890625 -1 C 1.960938 -0.9375 2.078125 -0.90625 2.234375 -0.90625 L 2.75 -0.90625 L 2.75 0 L 2.0625 0 C 1.15625 0 0.703125 -0.441406 0.703125 -1.328125 L 0.703125 -3.375 L 0.1875 -3.375 L 0.1875 -4.265625 L 0.703125 -4.265625 L 0.703125 -5.328125 L 1.78125 -5.328125 L 1.78125 -4.265625 L 2.75 -4.265625 L 2.75 -3.375 Z M 1.78125 -3.375 "/></g></g></g><g fill="#1b3a6b" fill-opacity="1"><g transform="translate(15.841904, 22.061219)"><g><path d="M 0.25 -2.15625 C 0.25 -2.582031 0.332031 -2.960938 0.5 -3.296875 C 0.675781 -3.628906 0.910156 -3.882812 1.203125 -4.0625 C 1.503906 -4.25 1.835938 -4.34375 2.203125 -4.34375 C 2.523438 -4.34375 2.800781 -4.273438 3.03125 -4.140625 C 3.269531 -4.015625 3.460938 -3.851562 3.609375 -3.65625 L 3.609375 -4.265625 L 4.703125 -4.265625 L 4.703125 0 L 3.609375 0 L 3.609375 -0.625 C 3.472656 -0.425781 3.28125 -0.257812 3.03125 -0.125 C 2.789062 0 2.515625 0.0625 2.203125 0.0625 C 1.835938 0.0625 1.503906 -0.0234375 1.203125 -0.203125 C 0.910156 -0.390625 0.675781 -0.648438 0.5 -0.984375 C 0.332031 -1.328125 0.25 -1.71875 0.25 -2.15625 Z M 3.609375 -2.140625 C 3.609375 -2.398438 3.554688 -2.625 3.453125 -2.8125 C 3.347656 -3 3.207031 -3.140625 3.03125 -3.234375 C 2.863281 -3.335938 2.679688 -3.390625 2.484375 -3.390625 C 2.285156 -3.390625 2.097656 -3.335938 1.921875 -3.234375 C 1.753906 -3.140625 1.617188 -3 1.515625 -2.8125 C 1.410156 -2.625 1.359375 -2.40625 1.359375 -2.15625 C 1.359375 -1.894531 1.410156 -1.664062 1.515625 -1.46875 C 1.617188 -1.28125 1.753906 -1.132812 1.921875 -1.03125 C 2.097656 -0.925781 2.285156 -0.875 2.484375 -0.875 C 2.679688 -0.875 2.863281 -0.921875 3.03125 -1.015625 C 3.207031 -1.117188 3.347656 -1.265625 3.453125 -1.453125 C 3.554688 -1.640625 3.609375 -1.867188 3.609375 -2.140625 Z M 3.609375 -2.140625 "/></g></g></g><g fill="#1b3a6b" fill-opacity="1"><g transform="translate(21.062811, 22.061219)"><g><path d="M 0.265625 -2.703125 C 0.265625 -3.222656 0.382812 -3.691406 0.625 -4.109375 C 0.863281 -4.535156 1.1875 -4.863281 1.59375 -5.09375 C 2.007812 -5.332031 2.476562 -5.453125 3 -5.453125 C 3.59375 -5.453125 4.113281 -5.296875 4.5625 -4.984375 C 5.019531 -4.671875 5.335938 -4.242188 5.515625 -3.703125 L 4.28125 -3.703125 C 4.15625 -3.960938 3.976562 -4.15625 3.75 -4.28125 C 3.53125 -4.40625 3.273438 -4.46875 2.984375 -4.46875 C 2.671875 -4.46875 2.390625 -4.394531 2.140625 -4.25 C 1.898438 -4.101562 1.710938 -3.894531 1.578125 -3.625 C 1.441406 -3.363281 1.375 -3.054688 1.375 -2.703125 C 1.375 -2.347656 1.441406 -2.035156 1.578125 -1.765625 C 1.710938 -1.492188 1.898438 -1.285156 2.140625 -1.140625 C 2.390625 -0.992188 2.671875 -0.921875 2.984375 -0.921875 C 3.273438 -0.921875 3.53125 -0.984375 3.75 -1.109375 C 3.976562 -1.242188 4.15625 -1.4375 4.28125 -1.6875 L 5.515625 -1.6875 C 5.335938 -1.144531 5.023438 -0.71875 4.578125 -0.40625 C 4.128906 -0.101562 3.601562 0.046875 3 0.046875 C 2.476562 0.046875 2.007812 -0.0664062 1.59375 -0.296875 C 1.1875 -0.535156 0.863281 -0.863281 0.625 -1.28125 C 0.382812 -1.695312 0.265625 -2.171875 0.265625 -2.703125 Z M 0.265625 -2.703125 "/></g></g></g><g fill="#1b3a6b" fill-opacity="1"><g transform="translate(26.976756, 22.061219)"><g><path d="M 1.609375 -5.703125 L 1.609375 0 L 0.53125 0 L 0.53125 -5.703125 Z M 1.609375 -5.703125 "/></g></g></g><g fill="#1b3a6b" fill-opacity="1"><g transform="translate(29.117484, 22.061219)"><g><path d="M 2.421875 0.0625 C 2.015625 0.0625 1.644531 -0.0234375 1.3125 -0.203125 C 0.988281 -0.390625 0.734375 -0.648438 0.546875 -0.984375 C 0.359375 -1.316406 0.265625 -1.703125 0.265625 -2.140625 C 0.265625 -2.566406 0.359375 -2.945312 0.546875 -3.28125 C 0.742188 -3.625 1.007812 -3.882812 1.34375 -4.0625 C 1.675781 -4.25 2.046875 -4.34375 2.453125 -4.34375 C 2.867188 -4.34375 3.242188 -4.25 3.578125 -4.0625 C 3.910156 -3.882812 4.171875 -3.625 4.359375 -3.28125 C 4.554688 -2.945312 4.65625 -2.566406 4.65625 -2.140625 C 4.65625 -1.703125 4.554688 -1.316406 4.359375 -0.984375 C 4.160156 -0.648438 3.890625 -0.390625 3.546875 -0.203125 C 3.210938 -0.0234375 2.835938 0.0625 2.421875 0.0625 Z M 2.421875 -0.875 C 2.617188 -0.875 2.800781 -0.921875 2.96875 -1.015625 C 3.144531 -1.109375 3.285156 -1.25 3.390625 -1.4375 C 3.492188 -1.625 3.546875 -1.859375 3.546875 -2.140625 C 3.546875 -2.546875 3.4375 -2.851562 3.21875 -3.0625 C 3.007812 -3.28125 2.75 -3.390625 2.4375 -3.390625 C 2.132812 -3.390625 1.878906 -3.28125 1.671875 -3.0625 C 1.460938 -2.851562 1.359375 -2.546875 1.359375 -2.140625 C 1.359375 -1.734375 1.457031 -1.421875 1.65625 -1.203125 C 1.863281 -0.984375 2.117188 -0.875 2.421875 -0.875 Z M 2.421875 -0.875 "/></g></g></g><g fill="#1b3a6b" fill-opacity="1"><g transform="translate(34.030369, 22.061219)"><g><path d="M 4.5625 -4.265625 L 4.5625 0 L 3.46875 0 L 3.46875 -0.546875 C 3.332031 -0.359375 3.148438 -0.210938 2.921875 -0.109375 C 2.703125 -0.00390625 2.460938 0.046875 2.203125 0.046875 C 1.867188 0.046875 1.570312 -0.0195312 1.3125 -0.15625 C 1.0625 -0.300781 0.863281 -0.507812 0.71875 -0.78125 C 0.570312 -1.050781 0.5 -1.378906 0.5 -1.765625 L 0.5 -4.265625 L 1.578125 -4.265625 L 1.578125 -1.921875 C 1.578125 -1.578125 1.660156 -1.3125 1.828125 -1.125 C 1.992188 -0.945312 2.222656 -0.859375 2.515625 -0.859375 C 2.816406 -0.859375 3.050781 -0.945312 3.21875 -1.125 C 3.382812 -1.3125 3.46875 -1.578125 3.46875 -1.921875 L 3.46875 -4.265625 Z M 4.5625 -4.265625 "/></g></g></g><g fill="#1b3a6b" fill-opacity="1"><g transform="translate(39.120364, 22.061219)"><g><path d="M 0.25 -2.15625 C 0.25 -2.582031 0.332031 -2.960938 0.5 -3.296875 C 0.675781 -3.628906 0.910156 -3.882812 1.203125 -4.0625 C 1.503906 -4.25 1.835938 -4.34375 2.203125 -4.34375 C 2.484375 -4.34375 2.75 -4.28125 3 -4.15625 C 3.25 -4.03125 3.453125 -3.867188 3.609375 -3.671875 L 3.609375 -5.703125 L 4.703125 -5.703125 L 4.703125 0 L 3.609375 0 L 3.609375 -0.625 C 3.472656 -0.414062 3.285156 -0.25 3.046875 -0.125 C 2.804688 0 2.523438 0.0625 2.203125 0.0625 C 1.835938 0.0625 1.503906 -0.0234375 1.203125 -0.203125 C 0.910156 -0.390625 0.675781 -0.648438 0.5 -0.984375 C 0.332031 -1.328125 0.25 -1.71875 0.25 -2.15625 Z M 3.609375 -2.140625 C 3.609375 -2.398438 3.554688 -2.625 3.453125 -2.8125 C 3.347656 -3 3.207031 -3.140625 3.03125 -3.234375 C 2.863281 -3.335938 2.679688 -3.390625 2.484375 -3.390625 C 2.285156 -3.390625 2.097656 -3.335938 1.921875 -3.234375 C 1.753906 -3.140625 1.617188 -3 1.515625 -2.8125 C 1.410156 -2.625 1.359375 -2.40625 1.359375 -2.15625 C 1.359375 -1.894531 1.410156 -1.664062 1.515625 -1.46875 C 1.617188 -1.28125 1.753906 -1.132812 1.921875 -1.03125 C 2.097656 -0.925781 2.285156 -0.875 2.484375 -0.875 C 2.679688 -0.875 2.863281 -0.921875 3.03125 -1.015625 C 3.207031 -1.117188 3.347656 -1.265625 3.453125 -1.453125 C 3.554688 -1.640625 3.609375 -1.867188 3.609375 -2.140625 Z M 3.609375 -2.140625 "/></g></g></g><g fill="#1b3a6b" fill-opacity="1"><g transform="translate(44.341271, 22.061219)"><g/></g></g><g fill="#1b3a6b" fill-opacity="1"><g transform="translate(46.173977, 22.061219)"><g><path d="M 2.390625 0.046875 C 2.015625 0.046875 1.675781 -0.015625 1.375 -0.140625 C 1.070312 -0.265625 0.832031 -0.445312 0.65625 -0.6875 C 0.488281 -0.9375 0.398438 -1.222656 0.390625 -1.546875 L 1.546875 -1.546875 C 1.566406 -1.328125 1.644531 -1.148438 1.78125 -1.015625 C 1.925781 -0.890625 2.117188 -0.828125 2.359375 -0.828125 C 2.617188 -0.828125 2.816406 -0.882812 2.953125 -1 C 3.097656 -1.125 3.171875 -1.285156 3.171875 -1.484375 C 3.171875 -1.640625 3.117188 -1.769531 3.015625 -1.875 C 2.921875 -1.976562 2.800781 -2.054688 2.65625 -2.109375 C 2.507812 -2.171875 2.3125 -2.238281 2.0625 -2.3125 C 1.707031 -2.414062 1.421875 -2.515625 1.203125 -2.609375 C 0.984375 -2.710938 0.796875 -2.863281 0.640625 -3.0625 C 0.484375 -3.269531 0.40625 -3.546875 0.40625 -3.890625 C 0.40625 -4.210938 0.484375 -4.488281 0.640625 -4.71875 C 0.804688 -4.957031 1.03125 -5.140625 1.3125 -5.265625 C 1.601562 -5.390625 1.929688 -5.453125 2.296875 -5.453125 C 2.859375 -5.453125 3.3125 -5.316406 3.65625 -5.046875 C 4 -4.773438 4.191406 -4.398438 4.234375 -3.921875 L 3.046875 -3.921875 C 3.035156 -4.109375 2.957031 -4.257812 2.8125 -4.375 C 2.664062 -4.5 2.46875 -4.5625 2.21875 -4.5625 C 2.007812 -4.5625 1.84375 -4.503906 1.71875 -4.390625 C 1.59375 -4.285156 1.53125 -4.128906 1.53125 -3.921875 C 1.53125 -3.785156 1.578125 -3.664062 1.671875 -3.5625 C 1.765625 -3.46875 1.878906 -3.390625 2.015625 -3.328125 C 2.160156 -3.273438 2.363281 -3.210938 2.625 -3.140625 C 2.976562 -3.035156 3.265625 -2.929688 3.484375 -2.828125 C 3.703125 -2.722656 3.890625 -2.566406 4.046875 -2.359375 C 4.210938 -2.160156 4.296875 -1.894531 4.296875 -1.5625 C 4.296875 -1.269531 4.21875 -1 4.0625 -0.75 C 3.914062 -0.507812 3.695312 -0.316406 3.40625 -0.171875 C 3.125 -0.0234375 2.785156 0.046875 2.390625 0.046875 Z M 2.390625 0.046875 "/></g></g></g><g fill="#1b3a6b" fill-opacity="1"><g transform="translate(50.863546, 22.061219)"><g><path d="M 2.421875 0.0625 C 2.015625 0.0625 1.644531 -0.0234375 1.3125 -0.203125 C 0.988281 -0.390625 0.734375 -0.648438 0.546875 -0.984375 C 0.359375 -1.316406 0.265625 -1.703125 0.265625 -2.140625 C 0.265625 -2.566406 0.359375 -2.945312 0.546875 -3.28125 C 0.742188 -3.625 1.007812 -3.882812 1.34375 -4.0625 C 1.675781 -4.25 2.046875 -4.34375 2.453125 -4.34375 C 2.867188 -4.34375 3.242188 -4.25 3.578125 -4.0625 C 3.910156 -3.882812 4.171875 -3.625 4.359375 -3.28125 C 4.554688 -2.945312 4.65625 -2.566406 4.65625 -2.140625 C 4.65625 -1.703125 4.554688 -1.316406 4.359375 -0.984375 C 4.160156 -0.648438 3.890625 -0.390625 3.546875 -0.203125 C 3.210938 -0.0234375 2.835938 0.0625 2.421875 0.0625 Z M 2.421875 -0.875 C 2.617188 -0.875 2.800781 -0.921875 2.96875 -1.015625 C 3.144531 -1.109375 3.285156 -1.25 3.390625 -1.4375 C 3.492188 -1.625 3.546875 -1.859375 3.546875 -2.140625 C 3.546875 -2.546875 3.4375 -2.851562 3.21875 -3.0625 C 3.007812 -3.28125 2.75 -3.390625 2.4375 -3.390625 C 2.132812 -3.390625 1.878906 -3.28125 1.671875 -3.0625 C 1.460938 -2.851562 1.359375 -2.546875 1.359375 -2.140625 C 1.359375 -1.734375 1.457031 -1.421875 1.65625 -1.203125 C 1.863281 -0.984375 2.117188 -0.875 2.421875 -0.875 Z M 2.421875 -0.875 "/></g></g></g><g fill="#1b3a6b" fill-opacity="1"><g transform="translate(55.77643, 22.061219)"><g><path d="M 1.609375 -5.703125 L 1.609375 0 L 0.53125 0 L 0.53125 -5.703125 Z M 1.609375 -5.703125 "/></g></g></g><g fill="#1b3a6b" fill-opacity="1"><g transform="translate(57.917159, 22.061219)"><g><path d="M 4.5625 -4.265625 L 4.5625 0 L 3.46875 0 L 3.46875 -0.546875 C 3.332031 -0.359375 3.148438 -0.210938 2.921875 -0.109375 C 2.703125 -0.00390625 2.460938 0.046875 2.203125 0.046875 C 1.867188 0.046875 1.570312 -0.0195312 1.3125 -0.15625 C 1.0625 -0.300781 0.863281 -0.507812 0.71875 -0.78125 C 0.570312 -1.050781 0.5 -1.378906 0.5 -1.765625 L 0.5 -4.265625 L 1.578125 -4.265625 L 1.578125 -1.921875 C 1.578125 -1.578125 1.660156 -1.3125 1.828125 -1.125 C 1.992188 -0.945312 2.222656 -0.859375 2.515625 -0.859375 C 2.816406 -0.859375 3.050781 -0.945312 3.21875 -1.125 C 3.382812 -1.3125 3.46875 -1.578125 3.46875 -1.921875 L 3.46875 -4.265625 Z M 4.5625 -4.265625 "/></g></g></g><g fill="#1b3a6b" fill-opacity="1"><g transform="translate(63.007153, 22.061219)"><g><path d="M 1.78125 -3.375 L 1.78125 -1.3125 C 1.78125 -1.164062 1.816406 -1.0625 1.890625 -1 C 1.960938 -0.9375 2.078125 -0.90625 2.234375 -0.90625 L 2.75 -0.90625 L 2.75 0 L 2.0625 0 C 1.15625 0 0.703125 -0.441406 0.703125 -1.328125 L 0.703125 -3.375 L 0.1875 -3.375 L 0.1875 -4.265625 L 0.703125 -4.265625 L 0.703125 -5.328125 L 1.78125 -5.328125 L 1.78125 -4.265625 L 2.75 -4.265625 L 2.75 -3.375 Z M 1.78125 -3.375 "/></g></g></g><g fill="#1b3a6b" fill-opacity="1"><g transform="translate(65.99493, 22.061219)"><g><path d="M 1.078125 -4.78125 C 0.890625 -4.78125 0.734375 -4.835938 0.609375 -4.953125 C 0.484375 -5.078125 0.421875 -5.226562 0.421875 -5.40625 C 0.421875 -5.582031 0.484375 -5.734375 0.609375 -5.859375 C 0.734375 -5.984375 0.890625 -6.046875 1.078125 -6.046875 C 1.265625 -6.046875 1.421875 -5.984375 1.546875 -5.859375 C 1.671875 -5.734375 1.734375 -5.582031 1.734375 -5.40625 C 1.734375 -5.226562 1.671875 -5.078125 1.546875 -4.953125 C 1.421875 -4.835938 1.265625 -4.78125 1.078125 -4.78125 Z M 1.609375 -4.265625 L 1.609375 0 L 0.53125 0 L 0.53125 -4.265625 Z M 1.609375 -4.265625 "/></g></g></g><g fill="#1b3a6b" fill-opacity="1"><g transform="translate(68.135658, 22.061219)"><g><path d="M 2.421875 0.0625 C 2.015625 0.0625 1.644531 -0.0234375 1.3125 -0.203125 C 0.988281 -0.390625 0.734375 -0.648438 0.546875 -0.984375 C 0.359375 -1.316406 0.265625 -1.703125 0.265625 -2.140625 C 0.265625 -2.566406 0.359375 -2.945312 0.546875 -3.28125 C 0.742188 -3.625 1.007812 -3.882812 1.34375 -4.0625 C 1.675781 -4.25 2.046875 -4.34375 2.453125 -4.34375 C 2.867188 -4.34375 3.242188 -4.25 3.578125 -4.0625 C 3.910156 -3.882812 4.171875 -3.625 4.359375 -3.28125 C 4.554688 -2.945312 4.65625 -2.566406 4.65625 -2.140625 C 4.65625 -1.703125 4.554688 -1.316406 4.359375 -0.984375 C 4.160156 -0.648438 3.890625 -0.390625 3.546875 -0.203125 C 3.210938 -0.0234375 2.835938 0.0625 2.421875 0.0625 Z M 2.421875 -0.875 C 2.617188 -0.875 2.800781 -0.921875 2.96875 -1.015625 C 3.144531 -1.109375 3.285156 -1.25 3.390625 -1.4375 C 3.492188 -1.625 3.546875 -1.859375 3.546875 -2.140625 C 3.546875 -2.546875 3.4375 -2.851562 3.21875 -3.0625 C 3.007812 -3.28125 2.75 -3.390625 2.4375 -3.390625 C 2.132812 -3.390625 1.878906 -3.28125 1.671875 -3.0625 C 1.460938 -2.851562 1.359375 -2.546875 1.359375 -2.140625 C 1.359375 -1.734375 1.457031 -1.421875 1.65625 -1.203125 C 1.863281 -0.984375 2.117188 -0.875 2.421875 -0.875 Z M 2.421875 -0.875 "/></g></g></g><g fill="#1b3a6b" fill-opacity="1"><g transform="translate(73.048543, 22.061219)"><g><path d="M 2.890625 -4.328125 C 3.398438 -4.328125 3.8125 -4.164062 4.125 -3.84375 C 4.4375 -3.519531 4.59375 -3.070312 4.59375 -2.5 L 4.59375 0 L 3.515625 0 L 3.515625 -2.359375 C 3.515625 -2.691406 3.429688 -2.945312 3.265625 -3.125 C 3.097656 -3.3125 2.867188 -3.40625 2.578125 -3.40625 C 2.273438 -3.40625 2.035156 -3.3125 1.859375 -3.125 C 1.691406 -2.945312 1.609375 -2.691406 1.609375 -2.359375 L 1.609375 0 L 0.53125 0 L 0.53125 -4.265625 L 1.609375 -4.265625 L 1.609375 -3.734375 C 1.753906 -3.921875 1.9375 -4.066406 2.15625 -4.171875 C 2.382812 -4.273438 2.628906 -4.328125 2.890625 -4.328125 Z M 2.890625 -4.328125 "/></g></g></g><g fill="#1b3a6b" fill-opacity="1"><g transform="translate(78.138538, 22.061219)"><g><path d="M 2.171875 0.0625 C 1.816406 0.0625 1.5 0 1.21875 -0.125 C 0.945312 -0.25 0.726562 -0.414062 0.5625 -0.625 C 0.40625 -0.84375 0.316406 -1.082031 0.296875 -1.34375 L 1.390625 -1.34375 C 1.410156 -1.175781 1.488281 -1.039062 1.625 -0.9375 C 1.769531 -0.832031 1.945312 -0.78125 2.15625 -0.78125 C 2.363281 -0.78125 2.523438 -0.820312 2.640625 -0.90625 C 2.753906 -0.988281 2.8125 -1.09375 2.8125 -1.21875 C 2.8125 -1.351562 2.738281 -1.457031 2.59375 -1.53125 C 2.457031 -1.601562 2.234375 -1.675781 1.921875 -1.75 C 1.609375 -1.832031 1.347656 -1.914062 1.140625 -2 C 0.941406 -2.082031 0.769531 -2.207031 0.625 -2.375 C 0.476562 -2.539062 0.40625 -2.769531 0.40625 -3.0625 C 0.40625 -3.289062 0.472656 -3.503906 0.609375 -3.703125 C 0.742188 -3.898438 0.9375 -4.054688 1.1875 -4.171875 C 1.445312 -4.285156 1.75 -4.34375 2.09375 -4.34375 C 2.59375 -4.34375 2.992188 -4.210938 3.296875 -3.953125 C 3.609375 -3.703125 3.78125 -3.359375 3.8125 -2.921875 L 2.765625 -2.921875 C 2.753906 -3.097656 2.6875 -3.234375 2.5625 -3.328125 C 2.4375 -3.429688 2.269531 -3.484375 2.0625 -3.484375 C 1.863281 -3.484375 1.710938 -3.445312 1.609375 -3.375 C 1.503906 -3.300781 1.453125 -3.203125 1.453125 -3.078125 C 1.453125 -2.929688 1.519531 -2.820312 1.65625 -2.75 C 1.800781 -2.675781 2.023438 -2.597656 2.328125 -2.515625 C 2.640625 -2.441406 2.894531 -2.363281 3.09375 -2.28125 C 3.289062 -2.195312 3.460938 -2.066406 3.609375 -1.890625 C 3.765625 -1.722656 3.84375 -1.5 3.84375 -1.21875 C 3.84375 -0.96875 3.773438 -0.742188 3.640625 -0.546875 C 3.503906 -0.359375 3.304688 -0.207031 3.046875 -0.09375 C 2.796875 0.0078125 2.503906 0.0625 2.171875 0.0625 Z M 2.171875 0.0625 "/></g></g></g><g fill="#0cc0df" fill-opacity="1"><g transform="translate(18.16451, 29.119914)"><g><path d="M 0.265625 -2.703125 C 0.265625 -3.222656 0.382812 -3.691406 0.625 -4.109375 C 0.863281 -4.535156 1.1875 -4.863281 1.59375 -5.09375 C 2.007812 -5.332031 2.476562 -5.453125 3 -5.453125 C 3.59375 -5.453125 4.113281 -5.296875 4.5625 -4.984375 C 5.019531 -4.671875 5.335938 -4.242188 5.515625 -3.703125 L 4.28125 -3.703125 C 4.15625 -3.960938 3.976562 -4.15625 3.75 -4.28125 C 3.53125 -4.40625 3.273438 -4.46875 2.984375 -4.46875 C 2.671875 -4.46875 2.390625 -4.394531 2.140625 -4.25 C 1.898438 -4.101562 1.710938 -3.894531 1.578125 -3.625 C 1.441406 -3.363281 1.375 -3.054688 1.375 -2.703125 C 1.375 -2.347656 1.441406 -2.035156 1.578125 -1.765625 C 1.710938 -1.492188 1.898438 -1.285156 2.140625 -1.140625 C 2.390625 -0.992188 2.671875 -0.921875 2.984375 -0.921875 C 3.273438 -0.921875 3.53125 -0.984375 3.75 -1.109375 C 3.976562 -1.242188 4.15625 -1.4375 4.28125 -1.6875 L 5.515625 -1.6875 C 5.335938 -1.144531 5.023438 -0.71875 4.578125 -0.40625 C 4.128906 -0.101562 3.601562 0.046875 3 0.046875 C 2.476562 0.046875 2.007812 -0.0664062 1.59375 -0.296875 C 1.1875 -0.535156 0.863281 -0.863281 0.625 -1.28125 C 0.382812 -1.695312 0.265625 -2.171875 0.265625 -2.703125 Z M 0.265625 -2.703125 "/></g></g></g><g fill="#0cc0df" fill-opacity="1"><g transform="translate(24.078455, 29.119914)"><g><path d="M 2.421875 0.0625 C 2.015625 0.0625 1.644531 -0.0234375 1.3125 -0.203125 C 0.988281 -0.390625 0.734375 -0.648438 0.546875 -0.984375 C 0.359375 -1.316406 0.265625 -1.703125 0.265625 -2.140625 C 0.265625 -2.566406 0.359375 -2.945312 0.546875 -3.28125 C 0.742188 -3.625 1.007812 -3.882812 1.34375 -4.0625 C 1.675781 -4.25 2.046875 -4.34375 2.453125 -4.34375 C 2.867188 -4.34375 3.242188 -4.25 3.578125 -4.0625 C 3.910156 -3.882812 4.171875 -3.625 4.359375 -3.28125 C 4.554688 -2.945312 4.65625 -2.566406 4.65625 -2.140625 C 4.65625 -1.703125 4.554688 -1.316406 4.359375 -0.984375 C 4.160156 -0.648438 3.890625 -0.390625 3.546875 -0.203125 C 3.210938 -0.0234375 2.835938 0.0625 2.421875 0.0625 Z M 2.421875 -0.875 C 2.617188 -0.875 2.800781 -0.921875 2.96875 -1.015625 C 3.144531 -1.109375 3.285156 -1.25 3.390625 -1.4375 C 3.492188 -1.625 3.546875 -1.859375 3.546875 -2.140625 C 3.546875 -2.546875 3.4375 -2.851562 3.21875 -3.0625 C 3.007812 -3.28125 2.75 -3.390625 2.4375 -3.390625 C 2.132812 -3.390625 1.878906 -3.28125 1.671875 -3.0625 C 1.460938 -2.851562 1.359375 -2.546875 1.359375 -2.140625 C 1.359375 -1.734375 1.457031 -1.421875 1.65625 -1.203125 C 1.863281 -0.984375 2.117188 -0.875 2.421875 -0.875 Z M 2.421875 -0.875 "/></g></g></g><g fill="#0cc0df" fill-opacity="1"><g transform="translate(28.991339, 29.119914)"><g><path d="M 2.890625 -4.328125 C 3.398438 -4.328125 3.8125 -4.164062 4.125 -3.84375 C 4.4375 -3.519531 4.59375 -3.070312 4.59375 -2.5 L 4.59375 0 L 3.515625 0 L 3.515625 -2.359375 C 3.515625 -2.691406 3.429688 -2.945312 3.265625 -3.125 C 3.097656 -3.3125 2.867188 -3.40625 2.578125 -3.40625 C 2.273438 -3.40625 2.035156 -3.3125 1.859375 -3.125 C 1.691406 -2.945312 1.609375 -2.691406 1.609375 -2.359375 L 1.609375 0 L 0.53125 0 L 0.53125 -4.265625 L 1.609375 -4.265625 L 1.609375 -3.734375 C 1.753906 -3.921875 1.9375 -4.066406 2.15625 -4.171875 C 2.382812 -4.273438 2.628906 -4.328125 2.890625 -4.328125 Z M 2.890625 -4.328125 "/></g></g></g><g fill="#0cc0df" fill-opacity="1"><g transform="translate(34.081334, 29.119914)"><g><path d="M 2.171875 0.0625 C 1.816406 0.0625 1.5 0 1.21875 -0.125 C 0.945312 -0.25 0.726562 -0.414062 0.5625 -0.625 C 0.40625 -0.84375 0.316406 -1.082031 0.296875 -1.34375 L 1.390625 -1.34375 C 1.410156 -1.175781 1.488281 -1.039062 1.625 -0.9375 C 1.769531 -0.832031 1.945312 -0.78125 2.15625 -0.78125 C 2.363281 -0.78125 2.523438 -0.820312 2.640625 -0.90625 C 2.753906 -0.988281 2.8125 -1.09375 2.8125 -1.21875 C 2.8125 -1.351562 2.738281 -1.457031 2.59375 -1.53125 C 2.457031 -1.601562 2.234375 -1.675781 1.921875 -1.75 C 1.609375 -1.832031 1.347656 -1.914062 1.140625 -2 C 0.941406 -2.082031 0.769531 -2.207031 0.625 -2.375 C 0.476562 -2.539062 0.40625 -2.769531 0.40625 -3.0625 C 0.40625 -3.289062 0.472656 -3.503906 0.609375 -3.703125 C 0.742188 -3.898438 0.9375 -4.054688 1.1875 -4.171875 C 1.445312 -4.285156 1.75 -4.34375 2.09375 -4.34375 C 2.59375 -4.34375 2.992188 -4.210938 3.296875 -3.953125 C 3.609375 -3.703125 3.78125 -3.359375 3.8125 -2.921875 L 2.765625 -2.921875 C 2.753906 -3.097656 2.6875 -3.234375 2.5625 -3.328125 C 2.4375 -3.429688 2.269531 -3.484375 2.0625 -3.484375 C 1.863281 -3.484375 1.710938 -3.445312 1.609375 -3.375 C 1.503906 -3.300781 1.453125 -3.203125 1.453125 -3.078125 C 1.453125 -2.929688 1.519531 -2.820312 1.65625 -2.75 C 1.800781 -2.675781 2.023438 -2.597656 2.328125 -2.515625 C 2.640625 -2.441406 2.894531 -2.363281 3.09375 -2.28125 C 3.289062 -2.195312 3.460938 -2.066406 3.609375 -1.890625 C 3.765625 -1.722656 3.84375 -1.5 3.84375 -1.21875 C 3.84375 -0.96875 3.773438 -0.742188 3.640625 -0.546875 C 3.503906 -0.359375 3.304688 -0.207031 3.046875 -0.09375 C 2.796875 0.0078125 2.503906 0.0625 2.171875 0.0625 Z M 2.171875 0.0625 "/></g></g></g><g fill="#0cc0df" fill-opacity="1"><g transform="translate(38.278074, 29.119914)"><g><path d="M 4.5625 -4.265625 L 4.5625 0 L 3.46875 0 L 3.46875 -0.546875 C 3.332031 -0.359375 3.148438 -0.210938 2.921875 -0.109375 C 2.703125 -0.00390625 2.460938 0.046875 2.203125 0.046875 C 1.867188 0.046875 1.570312 -0.0195312 1.3125 -0.15625 C 1.0625 -0.300781 0.863281 -0.507812 0.71875 -0.78125 C 0.570312 -1.050781 0.5 -1.378906 0.5 -1.765625 L 0.5 -4.265625 L 1.578125 -4.265625 L 1.578125 -1.921875 C 1.578125 -1.578125 1.660156 -1.3125 1.828125 -1.125 C 1.992188 -0.945312 2.222656 -0.859375 2.515625 -0.859375 C 2.816406 -0.859375 3.050781 -0.945312 3.21875 -1.125 C 3.382812 -1.3125 3.46875 -1.578125 3.46875 -1.921875 L 3.46875 -4.265625 Z M 4.5625 -4.265625 "/></g></g></g><g fill="#0cc0df" fill-opacity="1"><g transform="translate(43.368069, 29.119914)"><g><path d="M 1.609375 -5.703125 L 1.609375 0 L 0.53125 0 L 0.53125 -5.703125 Z M 1.609375 -5.703125 "/></g></g></g><g fill="#0cc0df" fill-opacity="1"><g transform="translate(45.508797, 29.119914)"><g><path d="M 1.78125 -3.375 L 1.78125 -1.3125 C 1.78125 -1.164062 1.816406 -1.0625 1.890625 -1 C 1.960938 -0.9375 2.078125 -0.90625 2.234375 -0.90625 L 2.75 -0.90625 L 2.75 0 L 2.0625 0 C 1.15625 0 0.703125 -0.441406 0.703125 -1.328125 L 0.703125 -3.375 L 0.1875 -3.375 L 0.1875 -4.265625 L 0.703125 -4.265625 L 0.703125 -5.328125 L 1.78125 -5.328125 L 1.78125 -4.265625 L 2.75 -4.265625 L 2.75 -3.375 Z M 1.78125 -3.375 "/></g></g></g><g fill="#0cc0df" fill-opacity="1"><g transform="translate(48.496574, 29.119914)"><g><path d="M 0.25 -2.15625 C 0.25 -2.582031 0.332031 -2.960938 0.5 -3.296875 C 0.675781 -3.628906 0.910156 -3.882812 1.203125 -4.0625 C 1.503906 -4.25 1.835938 -4.34375 2.203125 -4.34375 C 2.523438 -4.34375 2.800781 -4.273438 3.03125 -4.140625 C 3.269531 -4.015625 3.460938 -3.851562 3.609375 -3.65625 L 3.609375 -4.265625 L 4.703125 -4.265625 L 4.703125 0 L 3.609375 0 L 3.609375 -0.625 C 3.472656 -0.425781 3.28125 -0.257812 3.03125 -0.125 C 2.789062 0 2.515625 0.0625 2.203125 0.0625 C 1.835938 0.0625 1.503906 -0.0234375 1.203125 -0.203125 C 0.910156 -0.390625 0.675781 -0.648438 0.5 -0.984375 C 0.332031 -1.328125 0.25 -1.71875 0.25 -2.15625 Z M 3.609375 -2.140625 C 3.609375 -2.398438 3.554688 -2.625 3.453125 -2.8125 C 3.347656 -3 3.207031 -3.140625 3.03125 -3.234375 C 2.863281 -3.335938 2.679688 -3.390625 2.484375 -3.390625 C 2.285156 -3.390625 2.097656 -3.335938 1.921875 -3.234375 C 1.753906 -3.140625 1.617188 -3 1.515625 -2.8125 C 1.410156 -2.625 1.359375 -2.40625 1.359375 -2.15625 C 1.359375 -1.894531 1.410156 -1.664062 1.515625 -1.46875 C 1.617188 -1.28125 1.753906 -1.132812 1.921875 -1.03125 C 2.097656 -0.925781 2.285156 -0.875 2.484375 -0.875 C 2.679688 -0.875 2.863281 -0.921875 3.03125 -1.015625 C 3.207031 -1.117188 3.347656 -1.265625 3.453125 -1.453125 C 3.554688 -1.640625 3.609375 -1.867188 3.609375 -2.140625 Z M 3.609375 -2.140625 "/></g></g></g><g fill="#0cc0df" fill-opacity="1"><g transform="translate(53.717481, 29.119914)"><g><path d="M 2.890625 -4.328125 C 3.398438 -4.328125 3.8125 -4.164062 4.125 -3.84375 C 4.4375 -3.519531 4.59375 -3.070312 4.59375 -2.5 L 4.59375 0 L 3.515625 0 L 3.515625 -2.359375 C 3.515625 -2.691406 3.429688 -2.945312 3.265625 -3.125 C 3.097656 -3.3125 2.867188 -3.40625 2.578125 -3.40625 C 2.273438 -3.40625 2.035156 -3.3125 1.859375 -3.125 C 1.691406 -2.945312 1.609375 -2.691406 1.609375 -2.359375 L 1.609375 0 L 0.53125 0 L 0.53125 -4.265625 L 1.609375 -4.265625 L 1.609375 -3.734375 C 1.753906 -3.921875 1.9375 -4.066406 2.15625 -4.171875 C 2.382812 -4.273438 2.628906 -4.328125 2.890625 -4.328125 Z M 2.890625 -4.328125 "/></g></g></g><g fill="#0cc0df" fill-opacity="1"><g transform="translate(58.807476, 29.119914)"><g><path d="M 0.25 -2.140625 C 0.25 -2.578125 0.335938 -2.960938 0.515625 -3.296875 C 0.703125 -3.628906 0.953125 -3.882812 1.265625 -4.0625 C 1.585938 -4.25 1.953125 -4.34375 2.359375 -4.34375 C 2.890625 -4.34375 3.328125 -4.207031 3.671875 -3.9375 C 4.023438 -3.675781 4.257812 -3.304688 4.375 -2.828125 L 3.21875 -2.828125 C 3.15625 -3.015625 3.050781 -3.160156 2.90625 -3.265625 C 2.757812 -3.367188 2.578125 -3.421875 2.359375 -3.421875 C 2.046875 -3.421875 1.800781 -3.304688 1.625 -3.078125 C 1.445312 -2.859375 1.359375 -2.546875 1.359375 -2.140625 C 1.359375 -1.734375 1.445312 -1.414062 1.625 -1.1875 C 1.800781 -0.96875 2.046875 -0.859375 2.359375 -0.859375 C 2.796875 -0.859375 3.082031 -1.050781 3.21875 -1.4375 L 4.375 -1.4375 C 4.257812 -0.976562 4.023438 -0.613281 3.671875 -0.34375 C 3.328125 -0.0703125 2.890625 0.0625 2.359375 0.0625 C 1.953125 0.0625 1.585938 -0.0234375 1.265625 -0.203125 C 0.953125 -0.390625 0.703125 -0.644531 0.515625 -0.96875 C 0.335938 -1.300781 0.25 -1.691406 0.25 -2.140625 Z M 0.25 -2.140625 "/></g></g></g><g fill="#0cc0df" fill-opacity="1"><g transform="translate(63.443142, 29.119914)"><g><path d="M 4.609375 -4.265625 L 1.96875 2.015625 L 0.828125 2.015625 L 1.75 -0.109375 L 0.03125 -4.265625 L 1.25 -4.265625 L 2.34375 -1.28125 L 3.46875 -4.265625 Z M 4.609375 -4.265625 "/></g></g></g><g clip-path="url(#b379ed6be0)"><g transform="matrix(1, 0, 0, 1, 0, -0.000000000000010658)"><g clip-path="url(#6350204d2a)"><g clip-path="url(#a356f7182b)"><g mask="url(#00c58a00c8)"><g transform="matrix(1, 0, 0, 1, 0, -0.000000000000010658)"><g clip-path="url(#173f824609)"><g clip-path="url(#41569ce4c2)"><path fill="url(#e1b3fc0a9a)" d="M 66.921875 0.886719 L 66.921875 34.917969 L 84.5 34.917969 L 84.5 0.886719 Z M 66.921875 0.886719 " fill-rule="nonzero"/></g></g></g></g></g></g></g></g></g></g></g></g></g></g></svg>